<?xml version="1.0" encoding="UTF-8"?>
<svg version="1.1" xmlns="http://www.w3.org/2000/svg" width="1254" height="1254">
<path d="M0 0 C413.82 0 827.64 0 1254 0 C1254 413.82 1254 827.64 1254 1254 C840.18 1254 426.36 1254 0 1254 C0 840.18 0 426.36 0 0 Z " fill="#FEFDFD" transform="translate(0,0)"/>
<path d="M0 0 C0.84014648 0.38027344 1.68029297 0.76054687 2.54589844 1.15234375 C28.09867667 12.73947825 52.27128468 27.66139599 72.37695312 47.41210938 C74.12448893 49.12179242 75.89763348 50.80244573 77.671875 52.484375 C93.00954911 67.20516302 106.66914632 84.80639924 116 104 C117.00933594 103.7834375 118.01867187 103.566875 119.05859375 103.34375 C147.20712087 97.74855821 177.49248988 99.89506478 202 116 C205.7793376 118.87591028 209.39442475 121.91111155 213 125 C213.84304688 125.6496875 214.68609375 126.299375 215.5546875 126.96875 C232.95796956 141.42515043 244.19005978 166.55093374 246.80371094 188.6550293 C249.40996756 219.79071945 243.23443607 248.34933755 224.0625 273.375 C222.73301796 274.93800383 221.37761804 276.47925281 220 278 C218.78763672 279.35158203 218.78763672 279.35158203 217.55078125 280.73046875 C202.25673768 296.91759515 179.75136536 308.41121286 157.2983551 309.08053589 C154.51075048 309.09775877 151.72503392 309.08771777 148.9375 309.0625 C147.97650391 309.05798828 147.01550781 309.05347656 146.02539062 309.04882812 C143.68352578 309.03717706 141.34179819 309.02082025 139 309 C139.00666183 310.27928879 139.01332367 311.55857758 139.02018738 312.87663269 C139.08097939 324.9275714 139.12596354 336.97847904 139.15543652 349.02953625 C139.17109819 355.22524082 139.19234593 361.4208217 139.22631836 367.61645508 C139.25889345 373.5946048 139.27684923 379.57263546 139.28463173 385.55086708 C139.29017853 387.83265368 139.30100992 390.11443369 139.31719017 392.39616966 C139.33893946 395.59002179 139.34196792 398.78338076 139.34057617 401.97729492 C139.35675491 403.39501945 139.35675491 403.39501945 139.3732605 404.84138489 C139.35018573 409.72900989 139.18834274 413.03359392 136 417 C133.04979108 419.80922617 130.88325782 420.48395243 126.8359375 420.58984375 C120.23955097 420.39608995 116.57467603 417.66516985 111.625 413.5625 C109.98687476 412.27841855 108.34754576 410.99587132 106.70703125 409.71484375 C105.91377441 409.08304199 105.12051758 408.45124023 104.30322266 407.80029297 C101.06527944 405.2693842 97.71173936 402.9323479 94.3125 400.625 C93.27738281 399.91601562 92.24226562 399.20703125 91.17578125 398.4765625 C90.45777344 397.98929688 89.73976563 397.50203125 89 397 C89.02320313 397.66644531 89.04640625 398.33289063 89.0703125 399.01953125 C89.25441287 408.42180032 87.83991671 416.73642357 84.81420898 425.60839844 C84.02872722 427.91561864 83.27586045 430.23134964 82.52734375 432.55078125 C76.93530493 449.48798525 69.60784617 465.58628535 59 480 C58.24203125 481.0415625 57.4840625 482.083125 56.703125 483.15625 C41.03408721 504.29997377 21.6759371 520.97925767 -1.17773438 533.95458984 C-2.91061118 534.94871879 -4.62018727 535.9831418 -6.328125 537.01953125 C-44.66596168 559.2082107 -99.16428731 563.9934701 -141.9140625 553.42578125 C-143.61237988 552.96137299 -145.3079798 552.48685169 -147 552 C-147.76022461 551.78649902 -148.52044922 551.57299805 -149.30371094 551.35302734 C-153.62347634 550.10637707 -157.80985835 548.63758637 -162 547 C-162.95648437 546.64550781 -163.91296875 546.29101562 -164.8984375 545.92578125 C-186.00865346 537.68412159 -207.84650827 525.07478856 -223.52734375 508.5078125 C-225.17750817 506.76062765 -225.17750817 506.76062765 -228 504.5625 C-231.77340103 501.33938662 -234.83194156 497.80991415 -238 494 C-238.43086914 493.49742676 -238.86173828 492.99485352 -239.30566406 492.47705078 C-247.94062469 482.38512601 -254.78009183 471.7237491 -261 460 C-261.5566333 458.96069336 -261.5566333 458.96069336 -262.12451172 457.90039062 C-271.74626604 439.64168118 -279.81854142 417.87280629 -279 397 C-287.15537279 402.61656979 -295.26815099 408.28994322 -303.34936523 414.01269531 C-304.04102783 414.5022168 -304.73269043 414.99173828 -305.4453125 415.49609375 C-306.05906738 415.93107178 -306.67282227 416.3660498 -307.30517578 416.81420898 C-312.58731844 420.50988269 -316.61894751 420.95156046 -323 420 C-326.125 417.5625 -326.125 417.5625 -328 415 C-328.33 414.67 -328.66 414.34 -329 414 C-329.09535213 412.63391674 -329.1218867 411.26294545 -329.12025452 409.89353943 C-329.12231651 408.56624817 -329.12231651 408.56624817 -329.12442017 407.21214294 C-329.11902725 405.74479454 -329.11902725 405.74479454 -329.11352539 404.24780273 C-329.11367142 403.2235318 -329.11381744 402.19926086 -329.1139679 401.14395142 C-329.11326828 397.74047771 -329.10547363 394.33705796 -329.09765625 390.93359375 C-329.09579224 388.58089732 -329.09436826 386.2282005 -329.09336853 383.87550354 C-329.08954199 377.66943295 -329.07971055 371.4633856 -329.06866455 365.25732422 C-329.05845334 358.93001622 -329.05387154 352.60270448 -329.04882812 346.27539062 C-329.0380884 333.85025018 -329.02101036 321.42512702 -329 309 C-330.06823502 309.01227379 -330.06823502 309.01227379 -331.15805054 309.02479553 C-334.42565708 309.05753824 -337.69322893 309.07768527 -340.9609375 309.09765625 C-342.64110962 309.11729431 -342.64110962 309.11729431 -344.35522461 309.1373291 C-368.16555188 309.24631083 -389.04227152 298.22043593 -406 282 C-407.03253906 281.07960938 -407.03253906 281.07960938 -408.0859375 280.140625 C-422.67293935 266.64908969 -430.6302033 246.96437595 -435 228 C-435.2475 226.94683594 -435.495 225.89367187 -435.75 224.80859375 C-440.98601875 197.5013015 -435.62127651 167.9704467 -420.546875 144.6015625 C-416.35661366 138.46794374 -411.27193385 133.20292948 -406 128 C-404.65421875 126.63875 -404.65421875 126.63875 -403.28125 125.25 C-384.59494324 107.22320995 -360.60848693 100.82648628 -335.25 100.625 C-334.03038574 100.61098145 -332.81077148 100.59696289 -331.55419922 100.58251953 C-324.4843787 100.6199057 -318.21527239 101.38937437 -311.41699219 103.35693359 C-308.93365585 104.1285579 -308.93365585 104.1285579 -306 104 C-305.56171875 103.18660156 -305.1234375 102.37320313 -304.671875 101.53515625 C-290.05677216 75.12697246 -269.97757893 51.40057168 -246 33 C-245.05769531 32.22914063 -244.11539063 31.45828125 -243.14453125 30.6640625 C-228.17607489 18.63617742 -210.69277692 8.4290113 -193 1 C-192.00484375 0.56300781 -191.0096875 0.12601562 -189.984375 -0.32421875 C-181.61047868 -3.85379582 -173.08612044 -6.60269165 -164.375 -9.1875 C-163.25577148 -9.52031982 -162.13654297 -9.85313965 -160.98339844 -10.19604492 C-109.5081033 -25.19773965 -48.98172695 -22.97541844 0 0 Z " fill="#061F34" transform="translate(719,334)"/>
<path d="M0 0 C7.7316694 6.6024737 15.76542946 13.99591842 21.75 22.25 C21.75 22.91 21.75 23.57 21.75 24.25 C23.31354206 24.18927992 24.87599738 24.1003009 26.4375 24 C27.30761719 23.95359375 28.17773438 23.9071875 29.07421875 23.859375 C34.55544253 22.6110963 37.50120937 18.49595477 40.75 14.1875 C52.59785081 -0.52898467 67.69766468 -9.57835458 85.75 -14.75 C86.94109375 -15.11996094 88.1321875 -15.48992187 89.359375 -15.87109375 C95.2318317 -17.30372909 101.24309668 -17.03921808 107.25 -17 C108.43464844 -17.00773437 109.61929688 -17.01546875 110.83984375 -17.0234375 C132.96204217 -16.97411264 151.74751621 -6.22110073 167.5 8.6875 C171.47595551 12.78770412 174.64644234 17.47175034 177.75 22.25 C178.24757813 23.01441406 178.74515625 23.77882813 179.2578125 24.56640625 C181.14373846 27.95811079 182.51624039 31.43345108 183.875 35.0625 C184.13925781 35.73603516 184.40351562 36.40957031 184.67578125 37.10351562 C190.09169643 51.46806224 190.36732008 73.12481788 184.046875 87.14453125 C172.98172934 110.52240348 156.40038601 127.36769179 132 136.5 C131.24203125 136.75265625 130.4840625 137.0053125 129.703125 137.265625 C127.01699843 138.61943279 126.23157207 139.58107238 124.75 142.25 C124.24098859 145.48803541 124.21010632 148.71096047 124.17578125 151.984375 C124.1610527 152.9363678 124.14632416 153.8883606 124.13114929 154.86920166 C124.1072136 156.8830972 124.09178191 158.8971092 124.08422852 160.91113281 C124.06266418 163.97666092 123.98249981 167.03713919 123.90039062 170.1015625 C123.4686975 180.01523346 123.4686975 180.01523346 126.43457031 189.20849609 C128.43167845 191.15686031 130.452652 192.67855498 132.75 194.25 C143.1269294 208.26060165 148.92657211 223.92141746 149.75 241.25 C149.79463379 241.98911621 149.83926758 242.72823242 149.88525391 243.48974609 C151.24054018 267.99825027 144.02302562 292.30232379 127.73046875 311.06640625 C127.07691406 311.78699219 126.42335938 312.50757813 125.75 313.25 C125.06550781 314.06339844 124.38101562 314.87679688 123.67578125 315.71484375 C103.99638155 338.64470085 74.73743856 352.59273796 44.75 355.25 C41.90855022 355.40177691 39.07169157 355.45852069 36.2265625 355.48828125 C35.44684586 355.4980751 34.66712921 355.50786896 33.86378479 355.51795959 C2.02192008 355.83627326 2.02192008 355.83627326 -12.25 351.25 C-13.3030835 350.93651611 -13.3030835 350.93651611 -14.37744141 350.61669922 C-42.39752212 342.21256357 -65.59516727 324.96394062 -81.25 300.25 C-81.62141113 299.66379883 -81.99282227 299.07759766 -82.37548828 298.47363281 C-88.62106829 288.35062329 -91.76261995 277.82688007 -94.25 266.25 C-94.42958252 265.46326904 -94.60916504 264.67653809 -94.79418945 263.8659668 C-95.69566471 258.69226173 -95.47733663 253.42557204 -95.5 248.1875 C-95.520625 247.02283203 -95.54125 245.85816406 -95.5625 244.65820312 C-95.61433553 233.02760695 -93.00102168 222.81498381 -88.25 212.25 C-87.81816406 211.280625 -87.38632812 210.31125 -86.94140625 209.3125 C-83.29465075 201.56437992 -78.82334504 194.58881453 -72.57421875 188.66015625 C-70.21802919 186.15105764 -70.12045713 183.49428348 -70.08886719 180.22509766 C-70.07925964 179.42061188 -70.0696521 178.6161261 -70.05975342 177.78726196 C-70.05550354 176.92160614 -70.05125366 176.05595032 -70.046875 175.1640625 C-70.04117493 174.27012787 -70.03547485 173.37619324 -70.02960205 172.45516968 C-70.02015744 170.56387514 -70.01362021 168.67256419 -70.00976562 166.78125 C-70.00006027 163.89293625 -69.96903214 161.00533426 -69.9375 158.1171875 C-69.93096964 156.27865005 -69.9257193 154.44010752 -69.921875 152.6015625 C-69.9033548 151.30915146 -69.9033548 151.30915146 -69.88446045 149.9906311 C-69.90193197 145.27044684 -70.12025952 142.04874223 -73.25 138.25 C-75.95628228 136.81853157 -75.95628228 136.81853157 -79.125 135.875 C-89.90874282 132.03224086 -99.61140953 126.79596242 -108.25 119.25 C-108.84039062 118.74210938 -109.43078125 118.23421875 -110.0390625 117.7109375 C-122.00603381 106.61826546 -130.05820941 91.07117782 -133.25 75.25 C-133.43175781 74.46753906 -133.61351562 73.68507813 -133.80078125 72.87890625 C-136.97338729 54.31226395 -131.76338366 34.68651834 -121.25 19.25 C-108.28560907 1.25080139 -89.30143237 -12.31288591 -67.21875 -16.296875 C-42.3553881 -19.1356053 -20.12387782 -15.36969309 0 0 Z " fill="#FCFCFC" transform="translate(596.25,482.75)"/>
<path d="M0 0 C1.0984726 -0.00671722 2.19694519 -0.01343445 3.32870483 -0.02035522 C6.94851239 -0.03930379 10.56813426 -0.04325772 14.18798828 -0.04541016 C16.7123319 -0.05183971 19.23667478 -0.05856819 21.76101685 -0.06558228 C27.04838082 -0.07754681 32.33567601 -0.08134976 37.62304688 -0.08007812 C43.71649725 -0.07887709 49.80959324 -0.09997962 55.90295398 -0.13156545 C61.78640256 -0.16096562 67.66971188 -0.16805166 73.55322647 -0.16685867 C76.04661634 -0.16921394 78.54000903 -0.17803318 81.0333519 -0.19352341 C84.52513552 -0.21318754 88.01601332 -0.20734295 91.5078125 -0.1953125 C92.53044189 -0.20655151 93.55307129 -0.21779053 94.60668945 -0.22937012 C102.2806966 -0.16241316 108.23098146 1.54846098 114.40673828 6.18505859 C120.2431658 12.23080946 122.96866201 17.06874004 123.50830078 25.60302734 C123.32284184 34.07557261 119.25082254 39.00719363 113.38330078 44.72802734 C106.25716637 49.18186135 100.68964942 49.7332815 92.39941406 49.71044922 C91.26192719 49.71891876 90.12444031 49.72738831 88.95248413 49.7361145 C85.2027459 49.75945994 81.45341861 49.76050718 77.70361328 49.75927734 C75.08958777 49.76638044 72.47556383 49.77407966 69.86154175 49.78234863 C64.38585079 49.79693144 58.91027375 49.79754646 53.43457031 49.79150391 C47.12290716 49.7848665 40.81182889 49.80772304 34.50028431 49.84481764 C28.40749599 49.87931514 22.31498228 49.88584349 16.22210312 49.88172913 C13.63939548 49.88341946 11.05668007 49.89305351 8.47403336 49.91087341 C4.85754648 49.93308087 1.24245986 49.92334985 -2.37402344 49.90576172 C-3.43405579 49.91902496 -4.49408813 49.93228821 -5.58624268 49.94595337 C-13.72895723 49.85423627 -19.6145332 47.70629124 -25.49169922 41.97412109 C-26.29607422 40.86230469 -26.29607422 40.86230469 -27.11669922 39.72802734 C-27.95201172 38.61234375 -27.95201172 38.61234375 -28.80419922 37.47412109 C-32.38891012 31.51027171 -31.76445135 24.00154069 -31.11669922 17.29052734 C-28.98875456 11.05584836 -23.58853061 5.79325678 -18.11669922 2.29052734 C-12.05185582 0.08351359 -6.41202023 -0.00566066 0 0 Z " fill="#071F34" transform="translate(578.11669921875,722.70947265625)"/>
<path d="M0 0 C6.09368876 -0.1372796 11.29496832 0.32453352 17.12109375 2.1171875 C15.45666366 13.55280131 15.45666366 13.55280131 14.36686707 18.63330078 C12.01064556 29.63444575 11.64737241 40.26936982 11.609375 51.4921875 C11.59248402 53.39747235 11.57432804 55.30274636 11.55497742 57.20800781 C11.5079503 62.16602181 11.4778376 67.12399186 11.45153809 72.08215332 C11.4214908 77.16423218 11.37504509 82.24616013 11.33007812 87.328125 C11.24458473 97.25773277 11.17700271 107.18737208 11.12109375 117.1171875 C8.9285723 117.16152297 6.73578472 117.1927877 4.54296875 117.21875 C3.3219043 117.23760254 2.10083984 117.25645508 0.84277344 117.27587891 C-9.10267194 116.85180783 -17.83776542 112.75884048 -25.87890625 107.1171875 C-26.49121094 106.70082031 -27.10351562 106.28445313 -27.734375 105.85546875 C-33.82336467 101.21557502 -37.77698804 94.46880116 -41.87890625 88.1171875 C-42.68714844 86.8796875 -42.68714844 86.8796875 -43.51171875 85.6171875 C-45.1038387 82.70588245 -46.0532342 79.85732754 -47.00390625 76.6796875 C-47.33648437 75.58785156 -47.6690625 74.49601563 -48.01171875 73.37109375 C-52.14370654 57.86683325 -50.43496163 41.27148843 -42.87890625 27.1171875 C-35.03925547 14.45655942 -23.55163121 4.35792251 -8.83203125 0.59375 C-5.89288782 0.14437683 -2.96824344 0.12082402 0 0 Z " fill="#F9F9FA" transform="translate(378.87890625,480.8828125)"/>
<path d="M0 0 C10.96603127 7.52708386 18.72718122 20.21590244 22 33 C22.55549509 37.61972416 22.61989317 42.16333756 22.5625 46.8125 C22.54823975 48.66862915 22.54823975 48.66862915 22.53369141 50.56225586 C22.32588613 59.6726554 21.26352602 66.84516055 17 75 C16.55398438 75.96292969 16.10796875 76.92585937 15.6484375 77.91796875 C8.71583933 91.95744827 -2.32557424 100.78563768 -16.80859375 106.2734375 C-21.53235772 107.83960523 -25.77651551 108.12361087 -30.75 108.0625 C-31.44738281 108.05798828 -32.14476562 108.05347656 -32.86328125 108.04882812 C-34.57555803 108.0371002 -36.28779033 108.01916653 -38 108 C-38.00546844 106.42623596 -38.00546844 106.42623596 -38.01104736 104.82067871 C-38.04836066 94.82099948 -38.106518 84.82161793 -38.18390274 74.82216644 C-38.22302719 69.6841677 -38.25538403 64.54633138 -38.27099609 59.40820312 C-38.13063168 28.40742778 -38.13063168 28.40742778 -42.64471436 -2.17834473 C-43 -4 -43 -4 -43 -7 C-28.23921786 -12.49238405 -12.96210057 -7.77014808 0 0 Z " fill="#FAFBFB" transform="translate(896,490)"/>
<path d="M0 0 C4.65256817 3.47283614 8.63169779 7.26531104 12 12 C15.39677151 10.86774283 16.02230115 9.98607076 18.1875 7.25 C22.78860792 1.95348654 26.33632023 -1.50003475 33.4921875 -2.4765625 C42.75049396 -2.83050178 49.82170555 -1.55127758 56.87109375 4.64453125 C61.46510407 9.52497867 62.98323219 14.68484916 63.4375 21.3125 C63.06484603 31.11377158 56.51876595 38.22222501 49.84765625 44.74609375 C49.06990341 45.52388687 48.29215057 46.30167999 47.49082947 47.1030426 C45.85702715 48.73151932 44.21716019 50.35393238 42.5715332 51.97045898 C40.05885196 54.44108699 37.56837594 56.93257432 35.08007812 59.42773438 C33.48303291 61.01429227 31.88476701 62.59962255 30.28515625 64.18359375 C29.54435318 64.9241954 28.80355011 65.66479706 28.04029846 66.42784119 C23.12791455 71.22921951 19.09063739 74.5015101 12.125 75.625 C2.71669577 75.16002597 -6.73162104 61.34320573 -13.0625 54.9375 C-15.34203753 52.631103 -17.62403246 50.32721336 -19.91015625 48.02734375 C-20.45064102 47.48277527 -20.99112579 46.93820679 -21.54798889 46.37713623 C-24.31915547 43.60583544 -27.12279326 40.96852727 -30.15625 38.48046875 C-35.0658749 34.19803494 -36.54659739 29.31924928 -37.4140625 22.96875 C-37.75037613 15.95926585 -36.68994053 11.26768682 -32 6 C-23.16219996 -3.33700632 -11.6833537 -5.98994276 0 0 Z " fill="#071F33" transform="translate(611,603)"/>
<path d="M0 0 C5.59192884 4.46729511 10.08393601 9.97146501 11.39868164 17.18847656 C11.57030387 19.4537901 11.60632619 21.66628635 11.5625 23.9375 C11.54932739 25.12327637 11.54932739 25.12327637 11.53588867 26.33300781 C11.31585877 32.62365613 9.98662407 37.03615332 6 42 C4.948125 43.5778125 4.948125 43.5778125 3.875 45.1875 C-0.84734315 50.39082255 -6.80656459 53.62274442 -13.76953125 54.4453125 C-24.77558019 54.59893631 -32.65865553 53.46236408 -41 46 C-47.5763082 39.4236918 -50.20263193 32.19662847 -50.5625 23 C-50.22371487 13.52428247 -47.05093065 7.67464787 -40.375 1.0625 C-28.57160245 -8.80562853 -12.28518061 -8.90429891 0 0 Z " fill="#081F34" transform="translate(719,524)"/>
<path d="M0 0 C0.6909375 -0.020625 1.381875 -0.04125 2.09375 -0.0625 C11.08366114 -0.13009332 17.86924923 4.21665853 24.25 10.25 C31.25698011 18.92461212 32.10387122 26.18626866 31.25 37.25 C29.1737712 45.69249664 23.24734184 52.51802178 16.0625 57.1875 C8.77757302 61.56439095 -0.50407679 61.16621369 -8.75 60.25 C-12.33974159 59.16086752 -14.87314128 57.6291743 -17.75 55.25 C-18.69746094 54.52296875 -18.69746094 54.52296875 -19.6640625 53.78125 C-25.62864528 48.60348453 -28.94161536 41.39286608 -30.16015625 33.640625 C-30.47383211 25.07591021 -28.64294239 16.98601525 -23.0625 10.375 C-16.18435722 3.29381242 -9.88044977 0.07212007 0 0 Z " fill="#071F33" transform="translate(546.75,517.75)"/>
<path d="M0 0 C-0.969375 0.12375 -1.93875 0.2475 -2.9375 0.375 C-4.4534375 0.684375 -4.4534375 0.684375 -6 1 C-6.33 1.66 -6.66 2.32 -7 3 C-9.64860427 3.59355614 -12.29197322 3.74209269 -15 4 C-15 4.33 -15 4.66 -15 5 C-19.40914783 6.10228696 -23.48382401 6.07654536 -28 6 C-23.80309135 3.2020609 -19.43261972 2.46207096 -14.5625 1.3125 C-13.60794922 1.07466797 -12.65339844 0.83683594 -11.66992188 0.59179688 C-10.74888672 0.37201172 -9.82785156 0.15222656 -8.87890625 -0.07421875 C-8.0391626 -0.27619873 -7.19941895 -0.47817871 -6.33422852 -0.6862793 C-3.89576829 -1.01400876 -2.31870172 -0.76310434 0 0 Z " fill="#3E475A" transform="translate(585,319)"/>
<path d="M0 0 C0.99 0.33 1.98 0.66 3 1 C4.18823797 4.56471391 4.26274852 7.2558336 4 11 C3.01 12.32 2.02 13.64 1 15 C0.67 10.05 0.34 5.1 0 0 Z " fill="#1A273A" transform="translate(726,535)"/>
<path d="M0 0 C4.32786303 2.92423178 6.89485684 5.87774916 8 11 C8.23356447 15.34633018 8.17651886 19.65240591 8 24 C7.34 24.33 6.68 24.66 6 25 C6 19.72 6 14.44 6 9 C5.34 9 4.68 9 4 9 C0 2.25 0 2.25 0 0 Z " fill="#4B4F60" transform="translate(693,731)"/>
<path d="M0 0 C1.25433458 3.76300374 1.10695422 7.27210909 1.0625 11.1875 C1.05798828 11.93708984 1.05347656 12.68667969 1.04882812 13.45898438 C1.03706354 15.30602383 1.01912865 17.15302213 1 19 C-0.48046875 17.94140625 -0.48046875 17.94140625 -2 16 C-2.36328125 12.71484375 -2.36328125 12.71484375 -2.3125 8.9375 C-2.30863281 7.68839844 -2.30476562 6.43929687 -2.30078125 5.15234375 C-2 2 -2 2 0 0 Z " fill="#1A1F31" transform="translate(549,738)"/>
<path d="M0 0 C4.44046541 6.66069811 5.45394757 15.13157553 5 23 C4.67 23 4.34 23 4 23 C4 20.69 4 18.38 4 16 C3.34 16 2.68 16 2 16 C1.66259915 14.08404518 1.33023588 12.16720278 1 10.25 C0.814375 9.18265625 0.62875 8.1153125 0.4375 7.015625 C0 4 0 4 0 0 Z " fill="#4A5061" transform="translate(960,502)"/>
<path d="M0 0 C0.66 0.33 1.32 0.66 2 1 C0.61811547 4.21043882 -0.92421903 6.04936365 -3.625 8.25 C-4.25664063 8.77078125 -4.88828125 9.2915625 -5.5390625 9.828125 C-6.02117188 10.21484375 -6.50328125 10.6015625 -7 11 C-7 7.22089522 -6.00296038 6.53893899 -3.5 3.8125 C-2.8503125 3.09707031 -2.200625 2.38164063 -1.53125 1.64453125 C-1.0259375 1.10183594 -0.520625 0.55914063 0 0 Z " fill="#1F2B3F" transform="translate(680,524)"/>
<path d="M0 0 C0.33 0.99 0.66 1.98 1 3 C-1.21689281 6.85903564 -3.74480375 9.97731777 -7 13 C-7.99 12.67 -8.98 12.34 -10 12 C-9.36191406 11.30132813 -8.72382812 10.60265625 -8.06640625 9.8828125 C-7.24011719 8.97273437 -6.41382813 8.06265625 -5.5625 7.125 C-4.73878906 6.22007812 -3.91507813 5.31515625 -3.06640625 4.3828125 C-0.99092058 2.18862073 -0.99092058 2.18862073 0 0 Z " fill="#192338" transform="translate(770,587)"/>
<path d="M0 0 C0.97226335 2.59072612 1.11611108 3.69699083 0.109375 6.32421875 C-0.33921875 7.10410156 -0.7878125 7.88398438 -1.25 8.6875 C-1.68828125 9.47511719 -2.1265625 10.26273437 -2.578125 11.07421875 C-4 13 -4 13 -7 14 C-5.53967505 8.68972746 -3.01679014 4.53669968 0 0 Z " fill="#30384A" transform="translate(298,480)"/>
<path d="M0 0 C0.66 0 1.32 0 2 0 C5 5.75 5 5.75 5 8 C5.99 8.33 6.98 8.66 8 9 C9.6875 11.0625 9.6875 11.0625 11 13 C8 13 8 13 6.46484375 11.6796875 C3.2973767 7.9370538 1.18745191 4.86855282 0 0 Z " fill="#172036" transform="translate(671,558)"/>
<path d="M0 0 C0.33 0.99 0.66 1.98 1 3 C-0.43359375 5.04296875 -0.43359375 5.04296875 -2.4375 7.1875 C-3.09621094 7.90292969 -3.75492188 8.61835937 -4.43359375 9.35546875 C-4.95050781 9.89816406 -5.46742188 10.44085937 -6 11 C-6.66 10.34 -7.32 9.68 -8 9 C-5.36 6.03 -2.72 3.06 0 0 Z " fill="#182236" transform="translate(721,796)"/>
<path d="M0 0 C0.66 0 1.32 0 2 0 C3.88695626 4.28853694 5.58192622 8.52761347 7 13 C4 12 4 12 2.83203125 10.0390625 C2.49558594 9.24242187 2.15914063 8.44578125 1.8125 7.625 C1.46832031 6.83351563 1.12414062 6.04203125 0.76953125 5.2265625 C0 3 0 3 0 0 Z " fill="#2A3144" transform="translate(505,764)"/>
<path d="M0 0 C1 4 1 4 -0.1875 7.1875 C-2 10 -2 10 -6 11 C-4.02 7.37 -2.04 3.74 0 0 Z " fill="#1C2639" transform="translate(733,779)"/>
<path d="M0 0 C0.91007813 0.00902344 1.82015625 0.01804687 2.7578125 0.02734375 C3.45648437 0.03894531 4.15515625 0.05054688 4.875 0.0625 C1.48916198 3.19357836 -0.83609462 3.39800778 -5.375 3.25 C-6.99148438 3.20939453 -6.99148438 3.20939453 -8.640625 3.16796875 C-9.46046875 3.13316406 -10.2803125 3.09835937 -11.125 3.0625 C-7.05343521 1.0267176 -4.61375072 -0.05915065 0 0 Z " fill="#18293F" transform="translate(643.125,315.9375)"/>
<path d="M0 0 C-0.66 0.66 -1.32 1.32 -2 2 C-2 2.33 -2 2.66 -2 3 C-4.64 3.33 -7.28 3.66 -10 4 C-10.33 3.01 -10.66 2.02 -11 1 C-3.375 -1.125 -3.375 -1.125 0 0 Z " fill="#12253A" transform="translate(676,883)"/>
<path d="M0 0 C3 1 3 1 4.203125 2.99609375 C4.54859375 3.80175781 4.8940625 4.60742188 5.25 5.4375 C5.78367187 6.64212891 5.78367187 6.64212891 6.328125 7.87109375 C7 10 7 10 6 12 C3.32289809 10.66144904 3.04870906 9.27941912 1.875 6.5625 C1.52179687 5.75941406 1.16859375 4.95632813 0.8046875 4.12890625 C0 2 0 2 0 0 Z " fill="#2A3046" transform="translate(952,487)"/>
<path d="M0 0 C0.66 0.99 1.32 1.98 2 3 C1.00200236 6.99199058 -0.55799862 8.82006579 -4 11 C-3.48964169 6.6109185 -2.47785723 3.66291938 0 0 Z " fill="#192E43" transform="translate(508,689)"/>
<path d="M0 0 C0.97791242 2.64036353 1.03638105 3.87266632 0.25 6.625 C-1 9 -1 9 -4 11 C-3.48964169 6.6109185 -2.47785723 3.66291938 0 0 Z " fill="#18263B" transform="translate(418,429)"/>
<path d="M0 0 C3.5786304 1.65167557 6.74820188 3.78286492 10 6 C7 7 7 7 5.17578125 6.22265625 C3.45052083 5.1484375 1.72526042 4.07421875 0 3 C0 2.01 0 1.02 0 0 Z " fill="#16233D" transform="translate(539,811)"/>
<path d="M0 0 C0.66 0.99 1.32 1.98 2 3 C0.02 5.97 -1.96 8.94 -4 12 C-4.33 11.34 -4.66 10.68 -5 10 C-4.00390625 7.6171875 -4.00390625 7.6171875 -2.5625 4.875 C-1.85287109 3.50988281 -1.85287109 3.50988281 -1.12890625 2.1171875 C-0.75636719 1.41851563 -0.38382813 0.71984375 0 0 Z " fill="#CFD3DA" transform="translate(794,784)"/>
<path d="M0 0 C0.99 0.99 1.98 1.98 3 3 C2.34 4.32 1.68 5.64 1 7 C0.34 7 -0.32 7 -1 7 C-1.33 8.98 -1.66 10.96 -2 13 C-3.18771723 9.57056481 -2.80226223 7.62215325 -1.5625 4.25 C-1.27503906 3.45078125 -0.98757813 2.6515625 -0.69140625 1.828125 C-0.46324219 1.22484375 -0.23507812 0.6215625 0 0 Z " fill="#374456" transform="translate(288,500)"/>
<path d="M0 0 C0.99 0.33 1.98 0.66 3 1 C1.875 2.9375 1.875 2.9375 0 5 C-3.1875 5.75 -3.1875 5.75 -6 6 C-4 4 -2 2 0 0 Z " fill="#1B283E" transform="translate(475,365)"/>
<path d="M0 0 C0.99 0.495 0.99 0.495 2 1 C3.36817102 7.04275534 3.36817102 7.04275534 2.0625 10.4375 C1.711875 10.953125 1.36125 11.46875 1 12 C0.01751476 7.9472484 -0.08159574 4.16138263 0 0 Z " fill="#232F41" transform="translate(441,740)"/>
<path d="M0 0 C3.7952131 1.49097658 5.61042731 3.75700849 8 7 C5 7 5 7 2.3125 4.625 C0 2 0 2 0 0 Z " fill="#252C41" transform="translate(603,488)"/>
<path d="M0 0 C3.91402949 1.26941497 5.79072873 2.51167694 8 6 C6.68 6 5.36 6 4 6 C3.896875 5.360625 3.79375 4.72125 3.6875 4.0625 C3.460625 3.381875 3.23375 2.70125 3 2 C2.01 1.67 1.02 1.34 0 1 C0 0.67 0 0.34 0 0 Z " fill="#142137" transform="translate(781,374)"/>
<path d="M0 0 C-0.33 0.66 -0.66 1.32 -1 2 C-4.47325181 3.1577506 -7.36067448 3.06866652 -11 3 C-3.71428571 -1.85714286 -3.71428571 -1.85714286 0 0 Z " fill="#41485C" transform="translate(546,329)"/>
<path d="M0 0 C3.36720387 1.39332574 4.9859524 2.9789286 7 6 C4 6 4 6 1.8125 4.125 C0 2 0 2 0 0 Z " fill="#1C2339" transform="translate(527,800)"/>
<path d="M0 0 C2.6486859 3.19668988 4.93992341 6.39486597 7 10 C3.17398693 8.54875366 1.77670876 6.64225296 0 3 C0 2.01 0 1.02 0 0 Z " fill="#0C1124" transform="translate(520,559)"/>
<path d="M0 0 C0.66 0.33 1.32 0.66 2 1 C-0.35380297 4.92300495 -2.64464931 5.83857315 -7 7 C-4.66666667 4.66666667 -2.33333333 2.33333333 0 0 Z " fill="#262C3F" transform="translate(532,521)"/>
<path d="M0 0 C0.66 0 1.32 0 2 0 C4.1875 2.8125 4.1875 2.8125 6 6 C5.67 6.99 5.34 7.98 5 9 C4.16094435 7.87926138 3.32892169 6.75325453 2.5 5.625 C2.0359375 4.99851562 1.571875 4.37203125 1.09375 3.7265625 C0 2 0 2 0 0 Z " fill="#0E142A" transform="translate(907,500)"/>
<path d="M0 0 C0.66 0 1.32 0 2 0 C1.34 1.32 0.68 2.64 0 4 C-0.66 3.34 -1.32 2.68 -2 2 C-1.34 1.34 -0.68 0.68 0 0 Z M-5 7 C-5 7.99 -5 8.98 -5 10 C-5.99 10 -6.98 10 -8 10 C-7.01 9.01 -6.02 8.02 -5 7 Z " fill="#102740" transform="translate(319,456)"/>
<path d="M0 0 C0.66 0.33 1.32 0.66 2 1 C1.67 1.99 1.34 2.98 1 4 C-1.64 4.33 -4.28 4.66 -7 5 C-2.25 1.125 -2.25 1.125 0 0 Z " fill="#2C354A" transform="translate(511,342)"/>
<path d="M0 0 C-1.485 1.98 -1.485 1.98 -3 4 C-4.65 3.67 -6.3 3.34 -8 3 C-5.53387212 -0.1151089 -3.89156016 -0.31553191 0 0 Z " fill="#14273D" transform="translate(704,816)"/>
<path d="M0 0 C0.75 1.75 0.75 1.75 1 4 C-0.9375 6.25 -0.9375 6.25 -3 8 C-3 3.73173127 -2.62386487 3.06117568 0 0 Z " fill="#1F2E45" transform="translate(436,403)"/>
<path d="M0 0 C0 0.66 0 1.32 0 2 C1.98 2 3.96 2 6 2 C6 2.33 6 2.66 6 3 C1.48382401 3.07654536 -2.59085217 3.10228696 -7 2 C-7 1.67 -7 1.34 -7 1 C-2.25 0 -2.25 0 0 0 Z " fill="#475066" transform="translate(600,888)"/>
<path d="M0 0 C1.32 1.32 2.64 2.64 4 4 C3.67 4.99 3.34 5.98 3 7 C2.34 7 1.68 7 1 7 C0.67 4.69 0.34 2.38 0 0 Z " fill="#172134" transform="translate(466,572)"/>
</svg>
