<svg width="400" height="369" viewBox="0 0 400 369" xmlns="http://www.w3.org/2000/svg" role="img">
<title>blAPE monkey in envelope icon</title>
<desc>Vector version of the monkey-in-envelope logo, traced from source image.</desc>
<path d="M 207.7,178.2 L 205.6,181.0 L 205.6,185.2 L 209.9,188.7 L 214.1,188.0 L 216.9,183.1 L 216.2,180.3 L 213.4,177.5 Z M 185.9,178.2 L 183.8,181.7 L 184.5,185.9 L 188.7,188.7 L 192.3,188.0 L 195.1,183.8 L 194.4,180.3 L 191.5,177.5 Z M 232.4,128.9 L 228.9,130.3 L 225.4,133.8 L 223.2,138.7 L 223.2,146.5 L 227.5,154.2 L 235.2,157.0 L 239.4,155.6 L 243.7,151.4 L 245.8,145.8 L 245.8,139.4 L 243.7,133.8 L 240.1,130.3 Z M 163.4,128.9 L 158.5,131.7 L 155.6,135.9 L 154.9,147.2 L 159.9,154.9 L 166.9,157.0 L 171.1,155.6 L 175.4,151.4 L 177.5,145.1 L 177.5,140.1 L 174.6,133.1 L 168.3,128.9 Z M 390.1,152.1 L 383.8,145.1 L 362.7,131.0 L 362.7,141.5 L 360.6,148.6 L 374.6,159.2 L 375.4,161.3 L 369.0,166.2 L 309.9,201.4 L 303.5,178.9 L 319.0,177.5 L 333.1,170.4 L 343.0,159.2 L 348.6,146.5 L 350.0,139.4 L 349.3,122.5 L 347.2,115.5 L 340.8,104.2 L 332.4,96.5 L 323.9,92.3 L 317.6,90.8 L 304.2,91.5 L 293.0,67.6 L 286.6,59.2 L 275.4,47.9 L 264.1,40.1 L 252.1,34.5 L 250.0,35.2 L 245.8,43.0 L 243.0,44.4 L 241.5,35.2 L 236.6,24.6 L 227.5,15.5 L 215.5,9.2 L 207.0,7.0 L 204.2,7.7 L 207.7,15.5 L 207.7,21.1 L 193.0,19.0 L 173.9,19.7 L 164.1,21.8 L 147.9,28.2 L 132.4,38.0 L 117.6,52.1 L 104.2,71.8 L 96.5,91.5 L 83.1,90.8 L 69.0,95.8 L 58.5,105.6 L 51.4,120.4 L 50.0,129.6 L 50.7,142.3 L 53.5,152.1 L 61.3,164.8 L 66.2,169.7 L 75.4,175.4 L 84.5,178.2 L 96.5,178.9 L 90.8,200.7 L 88.0,200.7 L 24.6,161.3 L 25.4,159.2 L 39.4,149.3 L 37.3,140.1 L 37.3,131.0 L 15.5,145.8 L 8.5,155.6 L 7.0,161.3 L 7.0,336.6 L 10.6,346.5 L 19.7,356.3 L 26.8,359.9 L 34.5,361.3 L 366.2,361.3 L 378.2,357.7 L 388.0,348.6 L 393.0,337.3 L 393.0,160.6 Z M 26.1,342.3 L 185.2,227.5 L 194.4,223.2 L 202.8,222.5 L 212.7,226.1 L 369.7,338.7 L 373.9,342.3 L 373.9,345.1 L 371.1,347.9 L 365.5,350.0 L 34.5,350.0 L 28.9,347.9 L 26.1,345.1 Z M 18.3,172.5 L 22.5,173.2 L 140.1,245.1 L 140.1,246.5 L 21.1,333.1 L 19.0,333.1 L 17.6,330.3 Z M 380.3,171.8 L 382.4,172.5 L 382.4,330.3 L 381.0,333.1 L 376.1,331.0 L 260.6,247.2 L 260.6,245.1 Z M 314.1,110.6 L 321.1,113.4 L 326.8,119.0 L 330.3,126.8 L 331.0,135.9 L 329.6,142.3 L 326.1,149.3 L 319.7,155.6 L 308.5,159.2 L 304.9,157.7 L 308.5,138.7 L 307.0,112.0 Z M 85.9,110.6 L 90.1,110.6 L 92.3,112.0 L 91.5,139.4 L 95.1,155.6 L 94.4,158.5 L 86.6,158.5 L 79.6,154.9 L 73.9,149.3 L 69.7,139.4 L 69.7,127.5 L 72.5,120.4 L 78.2,114.1 Z M 135.9,97.2 L 149.3,90.1 L 155.6,88.7 L 166.9,88.7 L 181.0,93.0 L 191.5,100.0 L 199.3,108.5 L 200.7,108.5 L 210.6,98.6 L 221.1,92.3 L 233.1,88.7 L 244.4,88.7 L 259.2,93.7 L 272.5,105.6 L 278.2,115.5 L 281.0,125.4 L 281.0,139.4 L 279.6,145.8 L 271.1,162.0 L 256.3,175.4 L 259.9,188.0 L 258.5,204.2 L 251.4,218.3 L 239.4,230.3 L 236.6,230.3 L 216.9,216.2 L 202.8,212.0 L 193.0,212.7 L 184.5,215.5 L 163.4,230.3 L 159.2,228.9 L 150.0,219.7 L 143.7,209.2 L 140.8,199.3 L 140.8,186.6 L 144.4,175.4 L 136.6,169.7 L 128.2,160.6 L 121.1,147.2 L 119.0,137.3 L 119.0,127.5 L 121.8,116.2 L 126.8,107.0 Z" fill="#15202B" fill-rule="evenodd"/>
</svg>
