<?xml version="1.0" encoding="UTF-8"?>
<svg version="1.1" xmlns="http://www.w3.org/2000/svg" width="1254" height="1254">
<path d="M0 0 C413.82 0 827.64 0 1254 0 C1254 413.82 1254 827.64 1254 1254 C840.18 1254 426.36 1254 0 1254 C0 840.18 0 426.36 0 0 Z " fill="#6550F5" transform="translate(0,0)"/>
<path d="M0 0 C413.82 0 827.64 0 1254 0 C1254 413.82 1254 827.64 1254 1254 C840.18 1254 426.36 1254 0 1254 C0 840.18 0 426.36 0 0 Z M562 30 C560.89978516 30.14453613 559.79957031 30.28907227 558.66601562 30.43798828 C551.07791656 31.44980952 543.5369153 32.66146484 536 34 C534.78634766 34.21527344 533.57269531 34.43054687 532.32226562 34.65234375 C465.96110489 46.60748416 401.43670165 69.14027099 343 103 C341.76612549 103.71470459 341.76612549 103.71470459 340.50732422 104.44384766 C328.36976518 111.51845716 316.57538431 119.04111603 305 127 C304.27151855 127.50031738 303.54303711 128.00063477 302.79248047 128.51611328 C292.90810909 135.33284557 283.34385738 142.46192751 274 150 C273.3620752 150.51175781 272.72415039 151.02351563 272.06689453 151.55078125 C264.90625792 157.2974674 257.80049329 163.10664363 250.8125 169.0625 C250.31556641 169.48394287 249.81863281 169.90538574 249.30664062 170.33959961 C238.4187383 179.6935805 228.14164962 189.69372754 218.01367188 199.85595703 C216.10921495 201.76582994 214.19939181 203.67022149 212.2890625 205.57421875 C206.31539371 211.54425138 200.41677629 217.51160701 195 224 C194.07590983 225.07976012 193.15144341 226.15919837 192.2265625 227.23828125 C145.90743584 281.86079895 105.92839038 343.66445383 82.24609375 411.60546875 C81.41320652 413.87436845 80.516309 416.12074743 79.55859375 418.33984375 C73.96540861 431.47471713 69.81481319 445.25800249 66 459 C65.731875 459.95648438 65.46375 460.91296875 65.1875 461.8984375 C58.16380632 487.04576934 53.02184649 512.20408063 49 538 C48.77183594 539.43496826 48.77183594 539.43496826 48.5390625 540.89892578 C47.54143362 547.25057477 46.73452307 553.61297431 46 560 C45.86319824 561.12067871 45.72639648 562.24135742 45.58544922 563.39599609 C42.98208479 585.50551606 42.72737295 607.57962038 42.75 629.8125 C42.7503336 630.52989475 42.75066719 631.24728951 42.75101089 631.98642349 C42.75362279 636.19175314 42.76447327 640.39694498 42.78660774 644.60221863 C42.79647439 646.50478188 42.8033825 648.40735978 42.81016541 650.30993652 C42.87422845 665.75188174 42.87422845 665.75188174 45 681 C45.2190672 683.17719628 45.40891044 685.35742538 45.578125 687.5390625 C46.9620093 704.31433826 49.05382149 720.60986136 52.42480469 737.12524414 C52.98127448 739.90641213 53.49217098 742.69187554 53.98828125 745.484375 C57.68253893 765.99476138 62.97459719 786.06369903 69 806 C69.31646484 807.04720215 69.63292969 808.0944043 69.95898438 809.17333984 C72.80840685 818.52356738 75.67450044 827.80030693 79.625 836.75390625 C81.15541874 840.36691186 82.5244376 844.02385164 83.89404297 847.70019531 C86.79137933 855.4743304 89.72226064 863.02538142 93.67578125 870.33203125 C95 873 95 873 96.3671875 876.75 C98.09098508 881.46621714 100.41911903 885.78250711 102.8125 890.1875 C106.82583442 897.68076956 110.56451507 905.22128006 114 913 C114.66 913 115.32 913 116 913 C116.2371875 913.82113281 116.474375 914.64226563 116.71875 915.48828125 C118.24814524 919.6801298 120.25615365 923.3414954 122.5 927.1875 C122.96994385 927.99558105 123.4398877 928.80366211 123.92407227 929.63623047 C137.35680776 952.34248776 152.67983855 974.28701826 169 995 C169.66386719 995.84691406 170.32773438 996.69382812 171.01171875 997.56640625 C179.29558717 1008.03466187 187.99279361 1018.1493094 197 1028 C198.24910156 1029.38832031 198.24910156 1029.38832031 199.5234375 1030.8046875 C205.90463794 1037.85476489 212.53653438 1044.64122597 219.25 1051.375 C220.50937378 1052.64126221 220.50937378 1052.64126221 221.79418945 1053.93310547 C226.14080886 1058.26899036 230.55661862 1062.45205684 235.21289062 1066.45361328 C237.74979619 1068.64879906 240.1802085 1070.95316418 242.625 1073.25 C248.53807644 1078.72872376 254.80410183 1083.66307096 261.18359375 1088.58203125 C263.01583269 1090.01235971 264.82325823 1091.46898359 266.625 1092.9375 C275.79006385 1100.40600788 285.24361251 1107.32468545 295 1114 C296.18674316 1114.81573486 296.18674316 1114.81573486 297.39746094 1115.64794922 C311.57917439 1125.36317996 326.18232256 1134.29225258 341 1143 C342.04309326 1143.61609131 343.08618652 1144.23218262 344.16088867 1144.86694336 C352.27466338 1149.63793132 360.54032917 1153.88353818 369 1158 C369.94133789 1158.46100098 370.88267578 1158.92200195 371.85253906 1159.39697266 C389.14973004 1167.85797501 406.37256704 1176.023282 424.7265625 1181.92333984 C428.89500354 1183.2683249 432.91959494 1184.74216654 436.9375 1186.5 C458.16741276 1195.6068205 484.07644947 1203.96348542 507.05859375 1206.4765625 C510.67173283 1206.95640456 513.56438741 1207.84966036 517 1209 C536.18849603 1213.35946765 555.89050335 1215.27282088 575.4375 1217.203125 C576.44568787 1217.30281082 576.44568787 1217.30281082 577.47424316 1217.4045105 C579.64868857 1217.61328378 581.82394261 1217.80873511 584 1218 C584.97468231 1218.08776199 585.94936462 1218.17552399 586.95358276 1218.26594543 C594.79590372 1218.92735445 602.57710214 1219.16042463 610.4453125 1219.16796875 C611.69464569 1219.17129715 612.94397888 1219.17462555 614.23117065 1219.17805481 C616.86488481 1219.18308697 619.49860526 1219.18546429 622.13232422 1219.18530273 C626.06619448 1219.18746764 629.99977371 1219.20560422 633.93359375 1219.22460938 C656.9167331 1219.27713814 679.67209549 1217.93196392 702.4375 1214.75 C703.20928589 1214.6442868 703.98107178 1214.53857361 704.77624512 1214.42965698 C719.69912002 1212.3713622 734.33846727 1209.47436948 749 1206 C750.6708667 1205.61062256 750.6708667 1205.61062256 752.37548828 1205.21337891 C759.59744606 1203.52975152 766.80237126 1201.78447998 774 1200 C774.68707031 1199.83322754 775.37414062 1199.66645508 776.08203125 1199.49462891 C785.35311334 1197.23889721 794.41507048 1194.33996329 803.5 1191.4375 C804.71856689 1191.04908936 805.93713379 1190.66067871 807.19262695 1190.26049805 C812.93223496 1188.40584523 818.49008934 1186.44725902 824 1184 C825.86756097 1183.37321584 827.74257958 1182.7681339 829.625 1182.1875 C835.26422044 1180.3500012 840.51022213 1177.97750676 845.859375 1175.4296875 C848.65247775 1174.15820043 851.40858633 1173.10746181 854.3125 1172.125 C860.91447799 1169.78387305 867.03884088 1166.61977446 873.24853516 1163.41259766 C875.88046051 1162.06137138 878.52060284 1160.727224 881.16305542 1159.39672852 C915.30038796 1142.19090555 947.60293775 1122.21336722 978 1099 C978.63147949 1098.52014648 979.26295898 1098.04029297 979.91357422 1097.54589844 C992.83609563 1087.69131377 1004.98200915 1076.92898197 1017 1066 C1018.25683594 1064.88238281 1018.25683594 1064.88238281 1019.5390625 1063.7421875 C1026.5097402 1057.47839543 1033.17664052 1050.92941136 1039.8125 1044.3125 C1041.15598511 1042.97590332 1041.15598511 1042.97590332 1042.52661133 1041.61230469 C1047.55938513 1036.56779729 1052.36325813 1031.40837933 1057 1026 C1058.45445517 1024.39231627 1059.91220895 1022.78760285 1061.375 1021.1875 C1066.10576093 1015.93819023 1070.56997052 1010.50376055 1075 1005 C1075.92538408 1003.86686303 1076.85118393 1002.73406551 1077.77734375 1001.6015625 C1085.58092674 992.01192991 1092.87460417 982.10145571 1100 972 C1100.46760742 971.33919434 1100.93521484 970.67838867 1101.41699219 969.99755859 C1115.03529875 950.68779994 1127.12125402 930.63573665 1138.41674805 909.90209961 C1141.40679956 904.42133749 1144.43711558 898.9672014 1147.5625 893.5625 C1149.73889755 889.65178565 1151.42228014 885.65992488 1153.03125 881.48828125 C1153.98896896 879.02833376 1155.00382823 876.60560257 1156.0625 874.1875 C1156.51302734 873.15689453 1156.51302734 873.15689453 1156.97265625 872.10546875 C1158 870 1158 870 1159.44140625 867.7109375 C1161.33287712 864.42101072 1162.60234819 860.99748547 1163.875 857.4375 C1165.57242474 852.72927998 1167.37383836 848.10036676 1169.34765625 843.5 C1172.20981397 836.68357371 1174.55164331 829.72882385 1176.85717773 822.7097168 C1177.5609312 820.56727589 1178.27107117 818.4270384 1178.98242188 816.28710938 C1184.63929293 799.3735269 1184.63929293 799.3735269 1189.125 782.125 C1189.97864487 778.32945503 1190.83539085 774.56397735 1191.92578125 770.828125 C1193.52124817 765.14246107 1194.77807269 759.38773469 1196.0625 753.625 C1196.33126953 752.44421875 1196.60003906 751.2634375 1196.87695312 750.046875 C1198.123814 744.46243076 1199.29158051 738.9864409 1199.68920898 733.27099609 C1200 731 1200 731 1200.94921875 727.33959961 C1202.13245797 722.73649137 1202.71725502 718.13434048 1203.25390625 713.41796875 C1203.41257423 712.0757299 1203.41257423 712.0757299 1203.57444763 710.70637512 C1203.79611177 708.8233323 1204.01531725 706.93999857 1204.23217773 705.05639648 C1204.56041749 702.20558693 1204.89571653 699.35568026 1205.23242188 696.50585938 C1205.44833027 694.66411094 1205.66383799 692.82231548 1205.87890625 690.98046875 C1205.97683975 690.14364059 1206.07477325 689.30681244 1206.17567444 688.44462585 C1207.30979568 678.57612938 1208.15148402 668.73141632 1208.546875 658.8046875 C1208.60932404 657.25320511 1208.60932404 657.25320511 1208.67303467 655.67037964 C1209.0954716 644.48955064 1209.24142283 633.31319671 1209.25 622.125 C1209.25200912 620.54440796 1209.25200912 620.54440796 1209.25405884 618.93188477 C1209.24892467 600.12170704 1208.17431875 581.67779519 1206 563 C1205.73426731 560.60808488 1205.46863919 558.21615814 1205.203125 555.82421875 C1203.41521535 538.40743937 1203.41521535 538.40743937 1200.03515625 521.265625 C1198.64888981 515.84530402 1197.92823909 510.33605621 1197.14453125 504.80273438 C1196.51240271 500.55795727 1195.65949056 496.97490625 1194 493 C1193.5191621 490.61248696 1193.08669427 488.21501276 1192.6875 485.8125 C1191.21335382 477.4817928 1189.06028443 469.42768283 1186.67822266 461.31542969 C1186.01750585 459.05976439 1185.37311021 456.79993353 1184.73046875 454.5390625 C1181.6066394 443.70626157 1178.03389854 433.03617376 1174.375 422.375 C1174.13916199 421.68613708 1173.90332397 420.99727417 1173.66033936 420.28753662 C1170.96906633 412.44261268 1168.17434802 404.66528776 1165 397 C1164.35224609 395.39125 1164.35224609 395.39125 1163.69140625 393.75 C1161.40501478 388.18038202 1158.93065752 382.79132329 1156.1875 377.43359375 C1154.59314766 374.16622037 1153.28016236 370.81395114 1151.95703125 367.4296875 C1149.34336599 360.79417815 1146.27388813 354.53921032 1142.80859375 348.30859375 C1141.45597535 345.83414929 1140.13940059 343.35356099 1138.84765625 340.84765625 C1126.23729915 316.41247094 1112.26350303 291.69471451 1095.31640625 269.98828125 C1093.44527219 267.57442365 1091.63261646 265.13957371 1089.83984375 262.66796875 C1079.64952984 248.62294561 1068.96630114 235.09421985 1057.171875 222.35546875 C1055.17376183 220.18845033 1053.23550156 217.98357482 1051.3125 215.75 C1048.48460705 212.4854965 1045.49144499 209.44242455 1042.3828125 206.4453125 C1041 205 1041 205 1040 203 C1039.34 203 1038.68 203 1038 203 C1037.61714844 202.12794922 1037.61714844 202.12794922 1037.2265625 201.23828125 C1033.81548435 195.01360679 1027.31404004 190.34428291 1021.98828125 185.7734375 C1019.96235019 183.96641844 1018.07769631 182.07294161 1016.1875 180.125 C1012.30011949 176.1767603 1008.09526024 172.74233847 1003.77734375 169.27734375 C1001.16475747 167.13509649 998.67190984 164.91359429 996.1875 162.625 C962.30799412 131.87855187 921.76250198 107.97864802 881.2421875 87.2265625 C877.15780232 85.13431463 873.12190093 82.97675764 869.109375 80.75 C865.27826891 78.64549195 861.4974695 76.85568026 857.375 75.375 C851.4693864 73.19006258 845.73593674 70.77083401 840.046875 68.07421875 C832.88606639 64.75346208 825.43250781 62.27764953 817.98291016 59.69628906 C815.41178556 58.79345142 812.86286927 57.83469451 810.3125 56.875 C805.19335906 55.00439662 799.99598046 53.51267541 794.74609375 52.0546875 C791.62659765 51.17641435 788.52946493 50.24592461 785.43188477 49.29418945 C776.84270444 46.6813711 768.16038221 44.494605 759.4375 42.375 C758.25534912 42.08584717 757.07319824 41.79669434 755.85522461 41.4987793 C741.82386682 38.13461469 727.62540749 35.70303564 713.40087891 33.32006836 C711.13232328 32.93873102 708.86502304 32.55044426 706.59765625 32.16210938 C696.1004499 30.38634494 685.60104759 28.98718832 675 28 C673.81220947 27.88938232 672.62441895 27.77876465 671.40063477 27.66479492 C656.99080557 26.56493506 642.50584946 26.75545792 628.0625 26.75 C627.34901146 26.74941086 626.63552292 26.74882172 625.90041351 26.74821472 C604.46025828 26.7357227 583.27946705 27.05220866 562 30 Z " fill="#FCFCFC" transform="translate(0,0)"/>
<path d="M0 0 C3.58486622 2.8166806 3.58486622 2.8166806 4.125 6.125 C3.33561851 12.34137927 -0.66646277 15.46154485 -5.046875 19.66796875 C-19.08301687 33.20281984 -34.66972299 54.31773035 -35.47265625 74.51953125 C-35.46105469 75.29683594 -35.44945312 76.07414062 -35.4375 76.875 C-35.42396484 78.06029297 -35.42396484 78.06029297 -35.41015625 79.26953125 C-35.39855469 79.86121094 -35.38695312 80.45289063 -35.375 81.0625 C-34.67761719 80.7221875 -33.98023438 80.381875 -33.26171875 80.03125 C-15.43738925 71.84816344 3.97596094 65.94759185 23.625 65.0625 C24.88183594 64.99417969 26.13867188 64.92585938 27.43359375 64.85546875 C33.24944433 64.6804097 36.74017499 64.64744535 41.625 68.0625 C42.625 69.0625 42.625 69.0625 43.06640625 72.66796875 C42.990734 78.06231883 40.18205579 80.67419993 36.5625 84.375 C35.35956817 85.6842117 34.1616338 86.99803283 32.96875 88.31640625 C32.10056641 89.27184326 32.10056641 89.27184326 31.21484375 90.24658203 C22.99134025 99.63945965 17.67693632 111.64321821 17.3125 124.1875 C17.27511719 125.03570312 17.23773437 125.88390625 17.19921875 126.7578125 C17.42870329 129.12966992 17.42870329 129.12966992 19.0859375 130.67578125 C22.75203708 132.67803564 26.5956884 133.84691943 30.5625 135.125 C88.4068618 154.6395905 136.69431749 198.45878834 164.04296875 252.63671875 C169.9840455 264.83016613 174.97487522 277.72905972 177.625 291.0625 C178.27082031 290.9903125 178.91664063 290.918125 179.58203125 290.84375 C207.17578755 288.12589712 231.98368784 291.46287635 254.5 308.6875 C265.26860521 317.61343964 273.65893205 326.92044929 280.625 339.0625 C281.18960938 340.01511719 281.75421875 340.96773437 282.3359375 341.94921875 C294.63081065 364.32339145 295.65650467 392.38997476 288.93359375 416.546875 C288.24673211 418.76053196 287.46611248 420.90288689 286.625 423.0625 C286.27695312 423.98289062 285.92890625 424.90328125 285.5703125 425.8515625 C276.24121395 449.44869413 258.76488794 469.42366121 235.45214844 480.05322266 C213.85809283 489.01122287 192.20798447 488.31103459 169.625 484.0625 C169.4703125 485.89167969 169.4703125 485.89167969 169.3125 487.7578125 C162.12349322 551.7849041 123.25783582 620.29131682 73.22314453 660.59277344 C70.3938981 662.80069202 67.52103034 664.94323311 64.625 667.0625 C64.04508301 667.49256348 63.46516602 667.92262695 62.86767578 668.36572266 C43.42492964 682.75603656 22.28650635 694.56443512 -0.375 703.0625 C-1.44621094 703.53816406 -2.51742188 704.01382813 -3.62109375 704.50390625 C-26.60609911 714.4282435 -54.73894559 719.06669021 -79.7109375 719.30078125 C-80.57962463 719.3105751 -81.44831177 719.32036896 -82.34332275 719.33045959 C-102.04985573 719.50674379 -121.0163911 719.16426803 -140.375 715.0625 C-141.96151367 714.73306396 -141.96151367 714.73306396 -143.58007812 714.39697266 C-160.56708107 710.78863905 -178.77320567 706.74047953 -194.08569336 698.25366211 C-196.35958995 697.07051809 -198.6245312 696.14031896 -201.01953125 695.23046875 C-206.30880785 693.14204695 -211.34137847 690.70280585 -216.375 688.0625 C-217.27637695 687.58973633 -218.17775391 687.11697266 -219.10644531 686.62988281 C-231.56563646 679.96546103 -243.51039691 672.11308498 -254.375 663.0625 C-255.33019531 662.27875 -256.28539062 661.495 -257.26953125 660.6875 C-267.88648008 651.89689486 -278.88005286 642.77788306 -287.67578125 632.12109375 C-288.96594901 630.55806293 -290.30615048 629.0361723 -291.66796875 627.53515625 C-305.55152497 611.92897267 -316.9772746 593.68621166 -326.375 575.0625 C-326.77348145 574.27891113 -327.17196289 573.49532227 -327.58251953 572.68798828 C-338.21662879 551.44081074 -345.2381561 528.48913371 -351.5 505.625 C-351.78319092 504.59665039 -352.06638184 503.56830078 -352.3581543 502.50878906 C-353.97440497 496.36978713 -354.95642153 490.39762428 -355.375 484.0625 C-356.798125 484.38734375 -356.798125 484.38734375 -358.25 484.71875 C-384.96044639 490.36260309 -410.40701378 487.62876546 -433.65234375 473 C-451.24223734 460.42588421 -463.84933661 444.29659496 -471.375 424.0625 C-471.76429688 423.03253906 -472.15359375 422.00257813 -472.5546875 420.94140625 C-481.6777771 395.33682268 -478.81089086 367.38776426 -467.375 343.0625 C-455.58286251 320.00540292 -435.66272015 301.8725524 -410.91259766 293.77587891 C-401.71945549 290.92666744 -393.42229164 289.90121381 -383.8125 289.9375 C-382.78447266 289.93363281 -381.75644531 289.92976563 -380.69726562 289.92578125 C-379.70275391 289.92707031 -378.70824219 289.92835938 -377.68359375 289.9296875 C-376.78439209 289.93081543 -375.88519043 289.93194336 -374.95874023 289.93310547 C-372.33831817 290.06433704 -369.94065429 290.53411629 -367.375 291.0625 C-365.04198014 291.10074623 -362.70788492 291.10824284 -360.375 291.0625 C-359.9625 289.825 -359.55 288.5875 -359.125 287.3125 C-358.84527344 286.48105469 -358.56554687 285.64960937 -358.27734375 284.79296875 C-357.68813556 283.01004007 -357.11694806 281.22102627 -356.56640625 279.42578125 C-348.93716915 255.11394569 -335.82771959 233.17084665 -320.375 213.0625 C-319.60671875 212.06089844 -318.8384375 211.05929687 -318.046875 210.02734375 C-293.58099094 179.26375991 -251.29831344 139.24300568 -210.4296875 133.66015625 C-209.75164062 133.46292969 -209.07359375 133.26570312 -208.375 133.0625 C-207.18639599 130.85071361 -207.18639599 130.85071361 -206.375 128.0625 C-201.71673702 119.2052394 -196.49901052 110.98416527 -190.375 103.0625 C-189.72660156 102.22074219 -189.07820313 101.37898438 -188.41015625 100.51171875 C-177.20772071 86.2480236 -164.68391549 73.21358586 -150.375 62.0625 C-149.36824219 61.26199219 -148.36148437 60.46148437 -147.32421875 59.63671875 C-120.19807682 38.22222511 -89.09422702 21.187523 -56.375 10.0625 C-55.61687012 9.80243164 -54.85874023 9.54236328 -54.07763672 9.27441406 C-34.00445148 2.41227021 -34.00445148 2.41227021 -26.0625 1.0625 C-22.39589762 0.42876626 -18.7618159 -0.27646064 -15.125 -1.0625 C-9.43604156 -2.17868805 -5.22293018 -2.99834881 0 0 Z " fill="#FCFCFC" transform="translate(717.375,270.9375)"/>
<path d="M0 0 C11.91657321 8.5567616 19.55120606 20.71395204 22.8125 35.01953125 C24.8095703 52.31836439 19.80507704 67.02915851 9.0625 80.70703125 C0.59373038 90.00735964 -12.25933029 96.43705173 -24.83984375 97.2578125 C-41.45279942 97.69192184 -54.33821512 93.31156164 -66.875 82.08203125 C-78.2166081 70.25085733 -81.79895488 55.06622608 -81.5 39.2421875 C-80.91964309 25.70294443 -73.90374144 13.29149127 -64.1875 4.01953125 C-45.03352247 -11.96987608 -21.06367317 -13.30484675 0 0 Z " fill="#594BF4" transform="translate(543.1875,607.98046875)"/>
<path d="M0 0 C0.93457031 0.33 1.86914062 0.66 2.83203125 1 C17.92741123 6.7723214 27.90739896 17.14317257 34.58984375 31.71875 C39.52300359 43.19757068 39.70236558 57.07260438 35.31347656 68.84082031 C29.88792639 82.17123267 20.72958783 94.31231599 7.18359375 100.23046875 C6.27738281 100.54628906 5.37117187 100.86210938 4.4375 101.1875 C3.52871094 101.51105469 2.61992188 101.83460938 1.68359375 102.16796875 C-11.74091657 106.33015317 -26.50942885 104.88448062 -38.9296875 98.4921875 C-51.70158073 90.88565829 -60.51248573 80.17109768 -65 66 C-67.74333583 52.86700934 -67.36382988 38.93621898 -61 27 C-60.49210938 26.03707031 -59.98421875 25.07414063 -59.4609375 24.08203125 C-51.97620948 11.22319757 -40.10124784 2.91996714 -26 -1.4375 C-17.60755501 -3.0834321 -8.06920372 -2.95102308 0 0 Z " fill="#5D4BF5" transform="translate(748,601)"/>
<path d="M0 0 C5.83556793 3.19255286 9.23243249 6.98039983 12.11328125 12.9296875 C12.60828125 13.9196875 12.60828125 13.9196875 13.11328125 14.9296875 C13.88084265 22.29072719 13.32166191 28.70503533 9.11328125 34.9296875 C4.66371677 39.78798024 0.15915648 43.41649389 -6.53515625 44.265625 C-12.68692166 44.35375917 -17.13053124 44.02434294 -21.88671875 39.9296875 C-26.60137841 35.31144215 -30.41815651 31.05546932 -31.1875 24.28125 C-31.22580224 15.36959604 -29.25466716 9.44236201 -22.88671875 2.9296875 C-16.22066439 -2.34760553 -7.97151838 -2.95561033 0 0 Z " fill="#5C4CF5" transform="translate(593.88671875,745.0703125)"/>
<path d="M0 0 C7.30470638 3.20964371 10.72071821 8.23049891 14.203125 15.1953125 C15.0580163 24.04014944 13.55807298 30.59294409 7.953125 37.5078125 C3.37184558 42.37601965 -1.0734679 44.29671168 -7.734375 44.6328125 C-13.92965337 44.39814286 -18.27098716 42.58170357 -22.77734375 38.32421875 C-28.64918379 31.91967569 -30.28649908 26.87802572 -30.10546875 18.19921875 C-29.46368607 11.95199239 -26.92217299 7.9582135 -22.296875 3.8203125 C-15.57660938 -1.64753998 -8.34785175 -2.40175623 0 0 Z " fill="#5D4BF5" transform="translate(670.796875,744.8046875)"/>
<path d="M0 0 C0 0.66 0 1.32 0 2 C-8.91 1.34 -17.82 0.68 -27 0 C-27 -0.33 -27 -0.66 -27 -1 C-17.53967903 -2.0856106 -9.29505095 -2.40982803 0 0 Z " fill="#6A5FF6" transform="translate(354,561)"/>
<path d="M0 0 C0 0.66 0 1.32 0 2 C-0.99 2 -1.98 2 -3 2 C-3 2.66 -3 3.32 -3 4 C-4.909633 5.26432888 -6.87975606 6.43812136 -8.875 7.5625 C-9.96554687 8.18253906 -11.05609375 8.80257812 -12.1796875 9.44140625 C-13.77183113 10.3212751 -15.37295593 11.18647796 -17 12 C-17.66 11.34 -18.32 10.68 -19 10 C-16.21251481 8.32626249 -13.41935573 6.66223733 -10.625 5 C-9.8309375 4.52304688 -9.036875 4.04609375 -8.21875 3.5546875 C-7.45820313 3.10351562 -6.69765625 2.65234375 -5.9140625 2.1875 C-4.8614624 1.55908203 -4.8614624 1.55908203 -3.78759766 0.91796875 C-2 0 -2 0 0 0 Z " fill="#6B62F7" transform="translate(347,102)"/>
<path d="M0 0 C0.66 0 1.32 0 2 0 C1.67 0.99 1.34 1.98 1 3 C-1.62724481 4.15492976 -4.1673491 5.14189869 -6.875 6.0625 C-8.33193889 6.57076427 -9.78771862 7.08236627 -11.2421875 7.59765625 C-11.8904248 7.81945557 -12.53866211 8.04125488 -13.20654297 8.26977539 C-15.28802737 9.04758734 -15.28802737 9.04758734 -18 11 C-18.99 11 -19.98 11 -21 11 C-21 10.34 -21 9.68 -21 9 C-19.42032193 8.32471777 -17.83608097 7.66010306 -16.25 7 C-15.36828125 6.62875 -14.4865625 6.2575 -13.578125 5.875 C-11 5 -11 5 -7 5 C-7 4.34 -7 3.68 -7 3 C-3.535 2.505 -3.535 2.505 0 2 C0 1.34 0 0.68 0 0 Z " fill="#8864FB" transform="translate(859,1167)"/>
<path d="M0 0 C1.05284747 3.29645533 0.93680928 5.79475212 0.44140625 9.203125 C0.30283203 10.1828125 0.16425781 11.1625 0.02148438 12.171875 C-0.12998047 13.18765625 -0.28144531 14.2034375 -0.4375 15.25 C-0.58509766 16.28125 -0.73269531 17.3125 -0.88476562 18.375 C-1.24969505 20.91773403 -1.62167522 23.45923037 -2 26 C-2.33 26 -2.66 26 -3 26 C-3.33 23.69 -3.66 21.38 -4 19 C-3.34 19 -2.68 19 -2 19 C-2.33 16.69 -2.66 14.38 -3 12 C-2.34 12 -1.68 12 -1 12 C-1.309375 10.14375 -1.309375 10.14375 -1.625 8.25 C-2.06107124 4.88090165 -2.03403639 2.87158079 0 0 Z " fill="#9078F9" transform="translate(1203,703)"/>
<path d="M0 0 C0.33 0 0.66 0 1 0 C1.02689449 2.95839355 1.04678741 5.91654427 1.0625 8.875 C1.07087891 9.71675781 1.07925781 10.55851563 1.08789062 11.42578125 C1.09111328 12.23144531 1.09433594 13.03710938 1.09765625 13.8671875 C1.10289307 14.61081543 1.10812988 15.35444336 1.11352539 16.12060547 C1 18 1 18 0 20 C-0.66 20 -1.32 20 -2 20 C-1.835 19.28972656 -1.67 18.57945312 -1.5 17.84765625 C-0.99303179 14.96031385 -0.93488006 12.36382749 -1 9.4375 C-1.07460455 6.07563227 -0.97235531 3.22852348 0 0 Z " fill="#7169F9" transform="translate(565,643)"/>
<path d="M0 0 C0.66 0 1.32 0 2 0 C1.67 3.3 1.34 6.6 1 10 C2.32 10.66 3.64 11.32 5 12 C2 14 2 14 0 14 C-2.13999677 9.72000646 -1.09321611 4.50951645 0 0 Z " fill="#695DF7" transform="translate(682,338)"/>
<path d="M0 0 C0.33 0 0.66 0 1 0 C1.33860515 6.20776106 0.57960021 11.29648027 -2 17 C-2.66 17.66 -3.32 18.32 -4 19 C-3.37968409 12.42465139 -1.85102717 6.33307408 0 0 Z " fill="#746CF7" transform="translate(64,466)"/>
<path d="M0 0 C-5.61 1.32 -11.22 2.64 -17 4 C-14.63222425 0.44833638 -13.62664072 0.27641832 -9.625 -0.8125 C-8.66851563 -1.08707031 -7.71203125 -1.36164063 -6.7265625 -1.64453125 C-4 -2 -4 -2 0 0 Z " fill="#835FF9" transform="translate(778,1199)"/>
<path d="M0 0 C0.78375 0.04125 1.5675 0.0825 2.375 0.125 C-1.19187122 3.16908304 -4.72010916 5.33582201 -8.9375 7.375 C-10.00613281 7.89578125 -11.07476563 8.4165625 -12.17578125 8.953125 C-13.38814453 9.53320312 -13.38814453 9.53320312 -14.625 10.125 C-14.625 9.465 -14.625 8.805 -14.625 8.125 C-12.5078125 6.6875 -12.5078125 6.6875 -9.75 5.125 C-0.82453235 0.03926345 -0.82453235 0.03926345 0 0 Z " fill="#7D57FA" transform="translate(921.625,1134.875)"/>
<path d="M0 0 C1.62477811 2.96162086 2.51695886 5.69266927 3.1875 9 C3.36667969 9.845625 3.54585937 10.69125 3.73046875 11.5625 C4.00334098 14.03021411 3.76424119 15.65849506 3 18 C0.53671002 15.53671002 0.6745935 14.52502169 0.4375 11.125 C0.2518355 8.58632219 0.07119805 6.26498877 -0.58984375 3.8046875 C-1 2 -1 2 0 0 Z " fill="#9580FA" transform="translate(1194,494)"/>
<path d="M0 0 C0.66 0.33 1.32 0.66 2 1 C1.54636829 2.58468677 1.08688548 4.16769924 0.625 5.75 C0.36976562 6.63171875 0.11453125 7.5134375 -0.1484375 8.421875 C-0.9209934 10.76080572 -1.83625676 12.83442562 -3 15 C-3.33 15 -3.66 15 -4 15 C-3.43179252 9.54520815 -2.05362055 5.08940744 0 0 Z " fill="#886CF8" transform="translate(1170,834)"/>
<path d="M0 0 C5.77807024 -0.2358396 10.51324804 0.13216954 16 2 C15.67 2.66 15.34 3.32 15 4 C9.76119922 3.44854729 5.02649303 2.57077907 0 1 C0 0.67 0 0.34 0 0 Z " fill="#8B6FF6" transform="translate(472,1197)"/>
<path d="M0 0 C1 4 1 4 0.00390625 6.140625 C-0.47175781 6.83671875 -0.94742188 7.5328125 -1.4375 8.25 C-1.91058594 8.95640625 -2.38367188 9.6628125 -2.87109375 10.390625 C-3.24363281 10.92171875 -3.61617187 11.4528125 -4 12 C-4.66 11.34 -5.32 10.68 -6 10 C-4.02 6.7 -2.04 3.4 0 0 Z " fill="#675FF8" transform="translate(143,292)"/>
<path d="M0 0 C1.19882812 0.15275391 1.19882812 0.15275391 2.421875 0.30859375 C3.02515625 0.39238281 3.6284375 0.47617188 4.25 0.5625 C4.25 0.8925 4.25 1.2225 4.25 1.5625 C-0.83086796 2.40931133 -5.59828377 2.65288099 -10.75 2.5625 C-7.44376175 -0.74373825 -4.47451938 -0.5922158 0 0 Z " fill="#8B6BF8" transform="translate(686.75,1214.4375)"/>
<path d="M0 0 C3.66881155 0.70554068 6.70450534 2.27735506 10 4 C10 4.66 10 5.32 10 6 C6.51329166 4.8905928 3.22515763 3.73662334 0 2 C0 1.34 0 0.68 0 0 Z " fill="#7E63F5" transform="translate(369,1156)"/>
<path d="M0 0 C0.75 1.5625 0.75 1.5625 1 4 C-0.13084437 6.50286409 -1.52139516 8.67007722 -3 11 C-3.66 11 -4.32 11 -5 11 C-3.77472971 6.94718288 -2.30119506 3.55639236 0 0 Z " fill="#6E67F6" transform="translate(116,337)"/>
<path d="M0 0 C-1 3 -1 3 -2.84765625 3.94921875 C-3.57855469 4.19285156 -4.30945313 4.43648437 -5.0625 4.6875 C-6.16271484 5.06455078 -6.16271484 5.06455078 -7.28515625 5.44921875 C-7.85105469 5.63097656 -8.41695313 5.81273437 -9 6 C-8 3 -8 3 -5.0625 1.3125 C-2 0 -2 0 0 0 Z " fill="#6255F6" transform="translate(495,603)"/>
<path d="M0 0 C-5.445 1.485 -5.445 1.485 -11 3 C-10.67 2.01 -10.34 1.02 -10 0 C-3.68421053 -2.45614035 -3.68421053 -2.45614035 0 0 Z " fill="#825FF8" transform="translate(798,1193)"/>
<path d="M0 0 C0.66 0 1.32 0 2 0 C1.01 3.96 0.02 7.92 -1 12 C-1.33 12 -1.66 12 -2 12 C-2.17835515 7.45194365 -1.99785435 4.1205746 0 0 Z " fill="#8468F8" transform="translate(1181,802)"/>
<path d="M0 0 C-0.33 0.99 -0.66 1.98 -1 3 C-3.31 2.67 -5.62 2.34 -8 2 C-4.77208445 -0.1519437 -3.71599191 -0.20086443 0 0 Z M-8 3 C-6 4 -6 4 -6 4 Z " fill="#E5E2FC" transform="translate(321,562)"/>
<path d="M0 0 C-6.625 4 -6.625 4 -10 4 C-10 3.34 -10 2.68 -10 2 C-3.375 -1.125 -3.375 -1.125 0 0 Z " fill="#815BFA" transform="translate(848,1174)"/>
<path d="M0 0 C0.66 0.33 1.32 0.66 2 1 C-1.32307692 5.8 -1.32307692 5.8 -4.75 6.8125 C-5.4925 6.874375 -6.235 6.93625 -7 7 C-4.66666667 4.66666667 -2.33333333 2.33333333 0 0 Z " fill="#735CF7" transform="translate(794,927)"/>
<path d="M0 0 C0.33 0 0.66 0 1 0 C1.36923077 7.50769231 1.36923077 7.50769231 -0.5 10 C-0.995 10.33 -1.49 10.66 -2 11 C-1.125 3.375 -1.125 3.375 0 0 Z " fill="#7F78F8" transform="translate(64,466)"/>
<path d="M0 0 C0.66 0.99 1.32 1.98 2 3 C1.01 4.98 0.02 6.96 -1 9 C-1.66 9 -2.32 9 -3 9 C-2.01 6.03 -1.02 3.06 0 0 Z " fill="#6D66F6" transform="translate(98,373)"/>
<path d="M0 0 C-1.15173355 2.46800047 -2.04783565 4.04783565 -4 6 C-4.99 5.67 -5.98 5.34 -7 5 C-2.25 0 -2.25 0 0 0 Z " fill="#6B5BF6" transform="translate(701,612)"/>
<path d="M0 0 C0.33 0 0.66 0 1 0 C1.36923077 6.52307692 1.36923077 6.52307692 -0.5 8.9375 C-0.995 9.288125 -1.49 9.63875 -2 10 C-1.54177532 6.53058454 -1.10868317 3.32604951 0 0 Z " fill="#7870F9" transform="translate(69,449)"/>
<path d="M0 0 C0.33 0 0.66 0 1 0 C1.36923077 5.53846154 1.36923077 5.53846154 -0.5 7.875 C-1.2425 8.431875 -1.2425 8.431875 -2 9 C-2.33 8.34 -2.66 7.68 -3 7 C-2.06421005 4.64018187 -1.06652192 2.30368736 0 0 Z " fill="#7871F8" transform="translate(88,396)"/>
</svg>
